<?xml version="1.0" standalone="no"?>
<!DOCTYPE svg PUBLIC "-//W3C//DTD SVG 20010904//EN"
 "http://www.w3.org/TR/2001/REC-SVG-20010904/DTD/svg10.dtd">
<svg version="1.0" xmlns="http://www.w3.org/2000/svg"
 width="1323.000000pt" height="1070.000000pt" viewBox="0 0 1323.000000 1070.000000"
 preserveAspectRatio="xMidYMid meet">

<g transform="translate(0.000000,1070.000000) scale(0.100000,-0.100000)"
fill="#000000" stroke="none">
<path d="M2755 10684 c-16 -2 -73 -9 -125 -15 -812 -90 -1586 -550 -2069
-1229 -460 -645 -641 -1437 -510 -2229 30 -178 26 -174 84 -99 80 103 272 288
389 375 60 45 162 112 227 149 l119 67 0 91 c0 424 188 920 481 1271 331 396
766 647 1279 740 147 27 474 32 635 10 637 -86 1189 -445 1531 -998 144 -231
241 -501 291 -809 15 -94 17 -294 20 -2230 l4 -2128 378 0 378 0 8 250 c4 138
10 250 14 249 3 0 29 -27 56 -61 109 -132 324 -287 514 -369 227 -97 442 -139
754 -146 226 -6 334 2 502 37 502 103 941 431 1192 888 99 181 168 385 210
622 24 132 27 169 27 420 1 301 -10 401 -64 615 -171 675 -678 1181 -1335
1331 -185 42 -527 58 -740 34 -380 -43 -701 -177 -953 -399 -45 -39 -83 -71
-86 -71 -2 0 -6 217 -9 483 -3 432 -6 496 -25 617 -106 664 -398 1232 -868
1691 -390 380 -838 631 -1354 760 -249 62 -397 80 -680 84 -135 2 -258 1 -275
-1z m4696 -3967 c249 -65 453 -199 600 -392 168 -221 239 -451 239 -775 0
-373 -97 -632 -325 -868 -220 -230 -479 -332 -836 -332 -351 0 -620 108 -841
338 -223 233 -321 496 -321 862 0 223 26 363 103 541 120 281 388 522 677 609
139 42 207 50 413 46 170 -3 207 -7 291 -29z"/>
<path d="M1589 7515 c-439 -60 -802 -251 -1095 -577 -192 -212 -349 -513 -417
-798 -53 -217 -62 -306 -62 -590 0 -284 10 -380 61 -584 39 -159 70 -241 149
-401 100 -200 180 -311 350 -481 207 -207 409 -334 669 -419 210 -69 390 -95
653 -95 584 0 1032 181 1340 543 l41 47 7 -295 7 -295 379 0 379 0 0 1940 0
1940 -378 0 -379 0 -6 -167 c-4 -91 -7 -204 -7 -251 l0 -84 -108 108 c-130
132 -247 216 -407 295 -184 90 -363 141 -595 169 -116 14 -464 11 -581 -5z
m762 -798 c133 -35 236 -80 339 -148 208 -136 378 -366 449 -604 75 -256 73
-603 -5 -842 -111 -342 -365 -604 -689 -712 -233 -78 -567 -82 -798 -11 -401
124 -692 468 -762 903 -19 120 -19 374 0 494 41 250 147 464 314 631 131 131
280 221 448 272 139 42 207 50 413 46 170 -3 207 -7 291 -29z"/>
<path d="M11470 7523 c-552 -56 -1018 -296 -1333 -686 -217 -268 -340 -554
-403 -937 -16 -94 -18 -234 -24 -1320 -7 -1306 -5 -1251 -61 -1521 -120 -586
-455 -1151 -914 -1547 -418 -360 -902 -581 -1455 -663 -174 -26 -559 -32 -725
-11 -458 59 -881 216 -1249 463 -314 210 -620 526 -820 844 -168 267 -314 627
-371 915 -9 47 -19 93 -21 103 -5 16 -32 17 -390 17 l-385 0 6 -47 c4 -27 20
-115 36 -198 196 -996 818 -1878 1699 -2407 730 -439 1589 -605 2439 -472
1320 207 2433 1139 2869 2405 57 164 121 412 147 564 48 286 48 265 55 1535 7
1302 4 1226 60 1412 103 341 383 622 727 728 109 33 238 50 394 50 338 0 592
-90 837 -298 l64 -54 28 28 c15 16 132 141 260 278 l231 250 -38 33 c-352 309
-697 473 -1111 528 -103 14 -449 19 -552 8z"/>
<path d="M12645 4689 c-142 -146 -357 -260 -595 -315 -107 -25 -407 -30 -531
-9 -190 31 -356 99 -485 196 -34 25 -66 49 -73 53 -8 5 -11 -113 -11 -459 l0
-465 28 -11 c57 -22 252 -68 362 -86 163 -25 622 -26 760 0 329 62 607 178
862 360 85 61 240 192 246 208 3 8 -508 569 -518 569 -3 0 -24 -18 -45 -41z"/>
</g>
</svg>
